<svg xmlns="http://www.w3.org/2000/svg" xml:space="preserve" width="2000" height="275" data-version="2" data-id="lg_nNZu3tJ72bk7aC7RJY" viewBox="0 0 233 275" x="0" y="0"><rect width="100%" height="100%" fill="transparent"/><path fill="#915eff" d="M126.29 154.445q5.59 2.1 12.58 5.95-10.49-37.75-16.08-64.32-13.63 27.27-36 66.41-1.75 3.85-5.94 10.84 13.98-21.67 31.8-21.67 6.99 0 13.64 2.79m55.92-49.63q14.33 48.59 33.91 90.53l3.84 7.69q4.89 8.39 7.34 14.15 2.45 5.77 2.45 11.71 0 9.09-7.69 18.7-7.69 9.62-16.78 14.16-5.59 3.15-11.88 3.15-10.49 0-20.8-6.47t-24.64-18.7q-10.14-8.39-15.38-11.88-3.5-2.45-14.68-7.69-19.58-9.79-30.24-17.48Q77 194.995 77 184.505q0-2.79 2.45-8.38-6.64 11.88-18.53 36.35-14.68 29.71-16.77 33.2-4.2 7.69-13.64 16.95-9.43 9.27-17.47 9.27-4.2 0-7.34-3.15-2.45-2.45-2.45-7.69 0-14.68 22.37-52.08 1.4-2.8 4.55-8.04l7.68-14.68q23.77-44.74 34.61-67.46 6.29-13.28 18.17-39.84l12.59-28.32q7.69-16.42 15.38-27.43 7.69-11.01 19.22-16.96 5.94-3.14 11.19-3.14 6.99 0 10.13 6.46 3.15 6.47 5.59 19.05 6.3 36 17.48 76.2"/></svg>